:SAMPLES-PER-SECOND 30
:FULLY-SPECIFIED
:DEGREES
818
root  22.2098 38.3322 19.0051 175.541 -51.775 -178.15
RightUpLeg  13.3715 -5.53095 5.65182
RightLeg  9.80339 7.99492 1.34964
RightFoot  -18.2542 -0.470472 -5.74217
RightToes  5.82063e-011 0 -3.6325e-017
Spine  4.86137 1.21793 8.21872
Spine1  9.30061 2.81895 -4.61675
HEad  -13.4975 18.1399 -8.62215
LeftShoulder1  -0.36009 4.44859 -31.9776
LeftArm  2.33462 12.5547 -38.4708
LeftForeArm  16.5548 -19.1503 -4.97502
LeftHand  -0.0908002 8.24543 -1.7376
RightShoulder  -0.839331 -5.81143 29.7575
RightArm  17.0809 -3.59589 45.8522
RightForeArm  7.28747 16.8275 5.25387
RightHand  -0.122912 3.35415 -1.85975
LeftUpLeg  -15.3721 7.63936 -9.50942
LeftLeg  8.59087 17.6302 -1.29438
LeftFoot  -2.7029 -0.151697 2.32206
LeftToes  -1.20963e-009 8.6283e-011 2.04439e-011
819
root  21.8388 38.2683 18.3634 176.569 -51.4874 -179.174
RightUpLeg  14.6135 -5.58414 5.14388
RightLeg  9.19642 8.39551 1.47939
RightFoot  -18.6397 -0.500314 -5.86358
RightToes  5.82063e-011 0 -3.6325e-017
Spine  4.53865 1.54386 7.07274
Spine1  9.4537 3.35131 -5.3313
HEad  -13.4217 17.8228 -8.06548
LeftShoulder1  -0.359287 4.43873 -32.2998
LeftArm  3.21173 12.295 -37.3336
LeftForeArm  15.1662 -20.6842 -4.54116
LeftHand  -0.0681488 7.33119 -1.55774
RightShoulder  -0.835836 -5.79494 29.8618
RightArm  19.2621 -3.61032 46.7877
RightForeArm  6.25775 19.2531 4.84662
RightHand  -0.185381 3.72444 -2.63243
LeftUpLeg  -14.8029 4.92314 -9.7039
LeftLeg  8.65641 19.7897 -0.8894
LeftFoot  -2.26285 -0.649111 7.83865
LeftToes  -1.20963e-009 8.6283e-011 2.04439e-011
820
root  21.4528 38.2193 17.7183 177.963 -51.5347 179.281
RightUpLeg  15.4736 -5.83968 4.26581
RightLeg  9.5179 8.74828 1.68658
RightFoot  -18.9996 -0.509837 -5.69849
RightToes  5.82063e-011 0 -3.6325e-017
Spine  4.46622 1.70285 5.74135
Spine1  9.43581 3.82782 -6.55065
HEad  -13.9422 17.605 -7.40941
LeftShoulder1  -0.368265 4.47023 -31.9648
LeftArm  2.77738 11.9083 -36.8146
LeftForeArm  14.849 -21.7436 -4.29655
LeftHand  -0.07157 7.48789 -1.53269
RightShoulder  -0.858672 -5.84724 30.0322
RightArm  21.1836 -3.35254 47.7732
RightForeArm  5.68023 20.9146 4.6907
RightHand  -0.21943 2.92467 -3.28204
LeftUpLeg  -15.0447 4.08631 -10.8897
LeftLeg  9.94767 21.4599 0.255442
LeftFoot  0.478027 -1.58491 15.3796
LeftToes  -1.20963e-009 8.6283e-011 2.04439e-011
821
root  21.0682 38.182 17.0457 179.076 -52.3394 177.792
RightUpLeg  16.0913 -6.44323 3.49276
RightLeg  10.8074 8.56501 2.05517
RightFoot  -19.0754 -0.457073 -4.85019
RightToes  5.82063e-011 0 -3.6325e-017
Spine  5.00639 1.71337 4.08548
Spine1  9.06965 3.94651 -7.15088
HEad  -14.2572 16.9835 -7.18621
LeftShoulder1  -0.32687 4.36648 -31.7652
LeftArm  1.6582 11.2034 -36.5593
LeftForeArm  14.6762 -22.075 -4.24779
LeftHand  -0.0436028 7.02022 -0.387169
RightShoulder  -0.842025 -5.81426 29.8288
RightArm  22.0531 -3.45845 48.7297
RightForeArm  6.42744 22.321 4.58812
RightHand  -0.221306 3.01568 -3.29299
LeftUpLeg  -15.1344 5.22929 -12.3976
LeftLeg  12.4915 20.0758 2.1434
LeftFoot  -0.270045 -1.61266 16.5242
LeftToes  -1.20963e-009 8.6283e-011 2.04439e-011
822
root  20.6626 38.2067 16.3687 179.95 -52.7326 176.394
RightUpLeg  16.3919 -7.84423 2.18156
RightLeg  13.2751 10.0887 2.90861
RightFoot  -18.4206 -0.352144 -3.67641
RightToes  5.82063e-011 0 -3.6325e-017
Spine  5.8545 1.9993 2.38073
Spine1  8.6397 4.28158 -7.55238
HEad  -14.0209 16.0594 -7.00943
LeftShoulder1  -0.364514 4.47216 -31.507
LeftArm  0.0485438 10.4477 -36.8068
LeftForeArm  15.2129 -22.0916 -4.20017
LeftHand  -0.0292545 7.07382 0.583354
RightShoulder  -0.77106 -5.63036 29.6078
RightArm  23.2581 -3.42245 49.1963
RightForeArm  6.31856 23.1016 4.64558
RightHand  -0.197331 3.6411 -2.78761
LeftUpLeg  -14.8076 8.77694 -13.5268
LeftLeg  14.65 15.9373 2.95625
LeftFoot  -1.61877 -1.33652 15.7006
LeftToes  -1.20963e-009 8.6283e-011 2.04439e-011
823
root  20.1901 38.265 15.7106 -179.334 -52.9978 175.564
RightUpLeg  16.1439 -10.7756 0.182204
RightLeg  16.7434 13.927 4.76135
RightFoot  -17.1011 -0.203897 -1.75922
RightToes  5.82063e-011 0 -3.6325e-017
Spine  6.05503 2.29242 1.45334
Spine1  8.40668 4.73467 -8.45486
HEad  -13.7466 15.2971 -6.54575
LeftShoulder1  -0.339064 4.40965 -31.2886
LeftArm  -0.622374 10.3609 -36.6826
LeftForeArm  15.361 -22.5232 -4.17043
LeftHand  -0.0308727 6.45801 0.411867
RightShoulder  -0.703346 -5.46422 29.1996
RightArm  25.0227 -3.34287 49.5114
RightForeArm  5.91222 23.3648 4.70624
RightHand  -0.202475 3.67811 -2.85029
LeftUpLeg  -14.1344 10.2686 -13.7374
LeftLeg  15.8255 14.1616 3.13733
LeftFoot  -3.09516 -1.04978 14.7585
LeftToes  -1.20963e-009 8.6283e-011 2.04439e-011
